%TF.GenerationSoftware,KiCad,Pcbnew,8.0.4*%
%TF.CreationDate,2024-09-25T11:32:12+02:00*%
%TF.ProjectId,ys.granular,79732e67-7261-46e7-956c-61722e6b6963,rev?*%
%TF.SameCoordinates,Original*%
%TF.FileFunction,Soldermask,Bot*%
%TF.FilePolarity,Negative*%
%FSLAX46Y46*%
G04 Gerber Fmt 4.6, Leading zero omitted, Abs format (unit mm)*
G04 Created by KiCad (PCBNEW 8.0.4) date 2024-09-25 11:32:12*
%MOMM*%
%LPD*%
G01*
G04 APERTURE LIST*
G04 Aperture macros list*
%AMRoundRect*
0 Rectangle with rounded corners*
0 $1 Rounding radius*
0 $2 $3 $4 $5 $6 $7 $8 $9 X,Y pos of 4 corners*
0 Add a 4 corners polygon primitive as box body*
4,1,4,$2,$3,$4,$5,$6,$7,$8,$9,$2,$3,0*
0 Add four circle primitives for the rounded corners*
1,1,$1+$1,$2,$3*
1,1,$1+$1,$4,$5*
1,1,$1+$1,$6,$7*
1,1,$1+$1,$8,$9*
0 Add four rect primitives between the rounded corners*
20,1,$1+$1,$2,$3,$4,$5,0*
20,1,$1+$1,$4,$5,$6,$7,0*
20,1,$1+$1,$6,$7,$8,$9,0*
20,1,$1+$1,$8,$9,$2,$3,0*%
G04 Aperture macros list end*
%ADD10RoundRect,0.102000X-0.550000X-0.550000X0.550000X-0.550000X0.550000X0.550000X-0.550000X0.550000X0*%
%ADD11C,1.304000*%
%ADD12C,2.404000*%
%ADD13RoundRect,0.102000X0.754000X-0.754000X0.754000X0.754000X-0.754000X0.754000X-0.754000X-0.754000X0*%
%ADD14C,1.712000*%
%ADD15O,3.404000X1.804000*%
%ADD16R,1.700000X1.700000*%
%ADD17O,1.700000X1.700000*%
%ADD18RoundRect,0.102000X-1.390650X-1.390650X1.390650X-1.390650X1.390650X1.390650X-1.390650X1.390650X0*%
%ADD19C,2.985300*%
%ADD20RoundRect,0.102000X1.390650X-1.390650X1.390650X1.390650X-1.390650X1.390650X-1.390650X-1.390650X0*%
%ADD21RoundRect,0.102000X1.390650X1.390650X-1.390650X1.390650X-1.390650X-1.390650X1.390650X-1.390650X0*%
%ADD22C,2.400000*%
%ADD23O,2.400000X2.400000*%
%ADD24R,1.930000X1.830000*%
%ADD25C,2.130000*%
%ADD26R,1.800000X1.800000*%
%ADD27C,1.800000*%
%ADD28RoundRect,0.102000X0.900000X0.900000X-0.900000X0.900000X-0.900000X-0.900000X0.900000X-0.900000X0*%
%ADD29C,2.004000*%
%ADD30C,2.754000*%
%ADD31O,1.800000X1.800000*%
%ADD32C,6.404000*%
%ADD33C,1.728000*%
%ADD34RoundRect,0.102000X0.762000X0.762000X-0.762000X0.762000X-0.762000X-0.762000X0.762000X-0.762000X0*%
%ADD35R,1.600000X1.600000*%
%ADD36C,1.600000*%
G04 APERTURE END LIST*
D10*
%TO.C,Q1*%
X203000000Y-24000000D03*
D11*
X205000000Y-24000000D03*
X207000000Y-24000000D03*
%TD*%
D12*
%TO.C,SW4*%
X177000000Y-25000000D03*
X177000000Y-30000000D03*
X182000000Y-30000000D03*
X182000000Y-25000000D03*
%TD*%
D13*
%TO.C,RV3*%
X202500000Y-58462500D03*
D14*
X205000000Y-58462500D03*
X207500000Y-58462500D03*
D15*
X200200000Y-50962500D03*
X209800000Y-50962500D03*
%TD*%
D12*
%TO.C,SW5*%
X222000000Y-49000000D03*
X222000000Y-54000000D03*
X227000000Y-54000000D03*
X227000000Y-49000000D03*
%TD*%
D16*
%TO.C,J3*%
X169725000Y-52375000D03*
D17*
X172265000Y-52375000D03*
%TD*%
D18*
%TO.C,SW8*%
X200301000Y-72000000D03*
D19*
X205000000Y-72000000D03*
%TD*%
D20*
%TO.C,SW7*%
X242500000Y-121699000D03*
D19*
X242500000Y-117000000D03*
%TD*%
D21*
%TO.C,SW3*%
X118000000Y-90000000D03*
D19*
X113301000Y-90000000D03*
X108602000Y-90000000D03*
%TD*%
D20*
%TO.C,SW2*%
X225000000Y-75699000D03*
D19*
X225000000Y-71000000D03*
%TD*%
D22*
%TO.C,R1*%
X194650000Y-40000000D03*
D23*
X207350000Y-40000000D03*
%TD*%
D12*
%TO.C,SW6*%
X240000000Y-95000000D03*
X240000000Y-100000000D03*
X245000000Y-100000000D03*
X245000000Y-95000000D03*
%TD*%
D15*
%TO.C,RV8*%
X177600000Y-63000000D03*
X168000000Y-63000000D03*
D14*
X175300000Y-70500000D03*
X172800000Y-70500000D03*
D13*
X170300000Y-70500000D03*
%TD*%
D24*
%TO.C,J1*%
X225000000Y-23900000D03*
D25*
X225000000Y-35300000D03*
X225000000Y-27000000D03*
%TD*%
D23*
%TO.C,R2*%
X212000000Y-34500000D03*
D22*
X199300000Y-34500000D03*
%TD*%
D13*
%TO.C,RV2*%
X181500000Y-97000000D03*
D14*
X184000000Y-97000000D03*
X186500000Y-97000000D03*
D15*
X179200000Y-89500000D03*
X188800000Y-89500000D03*
%TD*%
D26*
%TO.C,LED1*%
X86000000Y-30540000D03*
D27*
X86000000Y-28000000D03*
%TD*%
D13*
%TO.C,RV6*%
X98500000Y-73000000D03*
D14*
X101000000Y-73000000D03*
X103500000Y-73000000D03*
D15*
X96200000Y-65500000D03*
X105800000Y-65500000D03*
%TD*%
D20*
%TO.C,SW1*%
X201000000Y-121699000D03*
D19*
X201000000Y-117000000D03*
%TD*%
D13*
%TO.C,RV4*%
X214700000Y-123500000D03*
D14*
X217200000Y-123500000D03*
X219700000Y-123500000D03*
D15*
X212400000Y-116000000D03*
X222000000Y-116000000D03*
%TD*%
D28*
%TO.C,RV1*%
X157750000Y-119500000D03*
D29*
X157750000Y-116000000D03*
X84250000Y-119500000D03*
D30*
X152400000Y-122000000D03*
X89600000Y-122000000D03*
X153600000Y-113500000D03*
X88400000Y-113500000D03*
%TD*%
D13*
%TO.C,RV5*%
X155500000Y-97000000D03*
D14*
X158000000Y-97000000D03*
X160500000Y-97000000D03*
D15*
X153200000Y-89500000D03*
X162800000Y-89500000D03*
%TD*%
D31*
%TO.C,D1*%
X213080000Y-29500000D03*
D26*
X202920000Y-29500000D03*
%TD*%
D13*
%TO.C,RV9*%
X167500000Y-123500000D03*
D14*
X170000000Y-123500000D03*
X172500000Y-123500000D03*
D15*
X165200000Y-116000000D03*
X174800000Y-116000000D03*
%TD*%
D32*
%TO.C,J2*%
X138000000Y-55000000D03*
X80000000Y-55000000D03*
X80000000Y-104000000D03*
X138000000Y-104000000D03*
D33*
X81310000Y-99147000D03*
X81310000Y-96607000D03*
X78770000Y-99147000D03*
X78770000Y-96607000D03*
X84870000Y-105270000D03*
X84870000Y-102730000D03*
X87410000Y-105270000D03*
X87410000Y-102730000D03*
X89950000Y-105270000D03*
X89950000Y-102730000D03*
X92490000Y-105270000D03*
X92490000Y-102730000D03*
X95030000Y-105270000D03*
X95030000Y-102730000D03*
X97570000Y-105270000D03*
X97570000Y-102730000D03*
X100110000Y-105270000D03*
X100110000Y-102730000D03*
X102650000Y-105270000D03*
X102650000Y-102730000D03*
X105190000Y-105270000D03*
X105190000Y-102730000D03*
X107730000Y-105270000D03*
X107730000Y-102730000D03*
X110270000Y-105270000D03*
X110270000Y-102730000D03*
X112810000Y-105270000D03*
X112810000Y-102730000D03*
X115350000Y-105270000D03*
X115350000Y-102730000D03*
X117890000Y-105270000D03*
X117890000Y-102730000D03*
X120430000Y-105270000D03*
X120430000Y-102730000D03*
X122970000Y-105270000D03*
X122970000Y-102730000D03*
X125510000Y-105270000D03*
X125510000Y-102730000D03*
X128050000Y-105270000D03*
X128050000Y-102730000D03*
X130590000Y-105270000D03*
X130590000Y-102730000D03*
X133130000Y-105270000D03*
D34*
X133130000Y-102730000D03*
%TD*%
D35*
%TO.C,U1*%
X146380000Y-57510000D03*
D36*
X146380000Y-54970000D03*
X146380000Y-52430000D03*
X146380000Y-49890000D03*
X146380000Y-47350000D03*
X146380000Y-44810000D03*
X146380000Y-42270000D03*
X146380000Y-39730000D03*
X146380000Y-37190000D03*
X146380000Y-34650000D03*
X146380000Y-32110000D03*
X146380000Y-29570000D03*
X146380000Y-27030000D03*
X146380000Y-24490000D03*
X148920000Y-24490000D03*
X151460000Y-24490000D03*
X154000000Y-24490000D03*
X156540000Y-24490000D03*
X159080000Y-24490000D03*
X161620000Y-24490000D03*
X161620000Y-27030000D03*
X161620000Y-29570000D03*
X161620000Y-32110000D03*
X161620000Y-34650000D03*
X161620000Y-37190000D03*
X161620000Y-39730000D03*
X161620000Y-42270000D03*
X161620000Y-44810000D03*
X161620000Y-47350000D03*
X161620000Y-49890000D03*
X161620000Y-52430000D03*
X161620000Y-54970000D03*
X161620000Y-57510000D03*
X159080000Y-54970000D03*
X159080000Y-49890000D03*
X159080000Y-47350000D03*
X159080000Y-44810000D03*
X151714000Y-57332200D03*
X153695200Y-57332200D03*
%TD*%
D13*
%TO.C,RV7*%
X123500000Y-73000000D03*
D14*
X126000000Y-73000000D03*
X128500000Y-73000000D03*
D15*
X121200000Y-65500000D03*
X130800000Y-65500000D03*
%TD*%
M02*
