%TF.GenerationSoftware,KiCad,Pcbnew,8.0.4*%
%TF.CreationDate,2024-09-25T11:32:12+02:00*%
%TF.ProjectId,ys.granular,79732e67-7261-46e7-956c-61722e6b6963,rev?*%
%TF.SameCoordinates,Original*%
%TF.FileFunction,Legend,Bot*%
%TF.FilePolarity,Positive*%
%FSLAX46Y46*%
G04 Gerber Fmt 4.6, Leading zero omitted, Abs format (unit mm)*
G04 Created by KiCad (PCBNEW 8.0.4) date 2024-09-25 11:32:12*
%MOMM*%
%LPD*%
G01*
G04 APERTURE LIST*
%ADD10C,0.150000*%
%ADD11C,0.100000*%
G04 APERTURE END LIST*
D10*
X163614819Y-40238095D02*
X164424342Y-40238095D01*
X164424342Y-40238095D02*
X164519580Y-40285714D01*
X164519580Y-40285714D02*
X164567200Y-40333333D01*
X164567200Y-40333333D02*
X164614819Y-40428571D01*
X164614819Y-40428571D02*
X164614819Y-40619047D01*
X164614819Y-40619047D02*
X164567200Y-40714285D01*
X164567200Y-40714285D02*
X164519580Y-40761904D01*
X164519580Y-40761904D02*
X164424342Y-40809523D01*
X164424342Y-40809523D02*
X163614819Y-40809523D01*
X164614819Y-41809523D02*
X164614819Y-41238095D01*
X164614819Y-41523809D02*
X163614819Y-41523809D01*
X163614819Y-41523809D02*
X163757676Y-41428571D01*
X163757676Y-41428571D02*
X163852914Y-41333333D01*
X163852914Y-41333333D02*
X163900533Y-41238095D01*
%TO.C,U1*%
X150190000Y-60050000D02*
X150190000Y-58780000D01*
X157810000Y-60050000D02*
X150190000Y-60050000D01*
X145110000Y-58780000D02*
X145110000Y-23220000D01*
X150190000Y-58780000D02*
X150190000Y-53700000D01*
X157810000Y-58780000D02*
X157810000Y-60050000D01*
X157810000Y-58780000D02*
X157810000Y-53700000D01*
X162890000Y-58780000D02*
X145110000Y-58780000D01*
X157810000Y-53700000D02*
X150190000Y-53700000D01*
X154000000Y-39000000D02*
X159000000Y-34000000D01*
X149000000Y-34000000D02*
X154000000Y-39000000D01*
X159000000Y-34000000D02*
X154000000Y-29000000D01*
X154000000Y-29000000D02*
X149000000Y-34000000D01*
X151750000Y-28300000D02*
X151750000Y-25760000D01*
X156250000Y-28300000D02*
X151750000Y-28300000D01*
X152250000Y-28250000D02*
X151750000Y-27750000D01*
X153250000Y-28000000D02*
X154750000Y-28000000D01*
X151750000Y-27750000D02*
X151750000Y-28300000D01*
X156250000Y-27750000D02*
X155750000Y-28250000D01*
X156250000Y-27750000D02*
X156250000Y-26250000D01*
X151750000Y-26250000D02*
X152250000Y-25750000D01*
X156250000Y-26250000D02*
X155750000Y-25750000D01*
X154750000Y-26000000D02*
X153250000Y-26000000D01*
X151750000Y-25760000D02*
X156250000Y-25750000D01*
X156250000Y-25760000D02*
X156250000Y-28300000D01*
X145110000Y-23220000D02*
X162890000Y-23220000D01*
X162890000Y-23220000D02*
X162890000Y-58780000D01*
X153250000Y-28000000D02*
G75*
G02*
X153250000Y-26000000I0J1000000D01*
G01*
X154750000Y-26000000D02*
G75*
G02*
X154750000Y-28000000I0J-1000000D01*
G01*
D11*
X156325000Y-34813000D02*
X156071000Y-35194000D01*
X155817000Y-34940000D01*
X156071000Y-34559000D01*
X156325000Y-34813000D01*
G36*
X156325000Y-34813000D02*
G01*
X156071000Y-35194000D01*
X155817000Y-34940000D01*
X156071000Y-34559000D01*
X156325000Y-34813000D01*
G37*
X157087000Y-34686000D02*
X156833000Y-35067000D01*
X156579000Y-34813000D01*
X156833000Y-34432000D01*
X157087000Y-34686000D01*
G36*
X157087000Y-34686000D02*
G01*
X156833000Y-35067000D01*
X156579000Y-34813000D01*
X156833000Y-34432000D01*
X157087000Y-34686000D01*
G37*
X155944000Y-34432000D02*
X155690000Y-34813000D01*
X155436000Y-34559000D01*
X155690000Y-34178000D01*
X155944000Y-34432000D01*
G36*
X155944000Y-34432000D02*
G01*
X155690000Y-34813000D01*
X155436000Y-34559000D01*
X155690000Y-34178000D01*
X155944000Y-34432000D01*
G37*
X156706000Y-34305000D02*
X156452000Y-34686000D01*
X156198000Y-34432000D01*
X156452000Y-34051000D01*
X156706000Y-34305000D01*
G36*
X156706000Y-34305000D02*
G01*
X156452000Y-34686000D01*
X156198000Y-34432000D01*
X156452000Y-34051000D01*
X156706000Y-34305000D01*
G37*
X157468000Y-34178000D02*
X157214000Y-34559000D01*
X156960000Y-34305000D01*
X157214000Y-33924000D01*
X157468000Y-34178000D01*
G36*
X157468000Y-34178000D02*
G01*
X157214000Y-34559000D01*
X156960000Y-34305000D01*
X157214000Y-33924000D01*
X157468000Y-34178000D01*
G37*
X155563000Y-34051000D02*
X155309000Y-34432000D01*
X155055000Y-34178000D01*
X155309000Y-33797000D01*
X155563000Y-34051000D01*
G36*
X155563000Y-34051000D02*
G01*
X155309000Y-34432000D01*
X155055000Y-34178000D01*
X155309000Y-33797000D01*
X155563000Y-34051000D01*
G37*
X157087000Y-33797000D02*
X156833000Y-34178000D01*
X156579000Y-33924000D01*
X156833000Y-33543000D01*
X157087000Y-33797000D01*
G36*
X157087000Y-33797000D02*
G01*
X156833000Y-34178000D01*
X156579000Y-33924000D01*
X156833000Y-33543000D01*
X157087000Y-33797000D01*
G37*
X157849000Y-33670000D02*
X157595000Y-34051000D01*
X157341000Y-33797000D01*
X157595000Y-33416000D01*
X157849000Y-33670000D01*
G36*
X157849000Y-33670000D02*
G01*
X157595000Y-34051000D01*
X157341000Y-33797000D01*
X157595000Y-33416000D01*
X157849000Y-33670000D01*
G37*
%TD*%
M02*
