M48
; DRILL file {KiCad 8.0.4} date 2024-09-25T11:32:17+0200
; FORMAT={-:-/ absolute / inch / decimal}
; #@! TF.CreationDate,2024-09-25T11:32:17+02:00
; #@! TF.GenerationSoftware,Kicad,Pcbnew,8.0.4
; #@! TF.FileFunction,Plated,1,2,PTH
FMAT,2
INCH
; #@! TA.AperFunction,Plated,PTH,ViaDrill
T1C0.0118
; #@! TA.AperFunction,Plated,PTH,ComponentDrill
T2C0.0315
; #@! TA.AperFunction,Plated,PTH,ComponentDrill
T3C0.0354
; #@! TA.AperFunction,Plated,PTH,ComponentDrill
T4C0.0394
; #@! TA.AperFunction,Plated,PTH,ComponentDrill
T5C0.0400
; #@! TA.AperFunction,Plated,PTH,ComponentDrill
T6C0.0433
; #@! TA.AperFunction,Plated,PTH,ComponentDrill
T7C0.0472
; #@! TA.AperFunction,Plated,PTH,ComponentDrill
T8C0.0480
; #@! TA.AperFunction,Plated,PTH,ComponentDrill
T9C0.0559
; #@! TA.AperFunction,Plated,PTH,ComponentDrill
T10C0.0563
; #@! TA.AperFunction,Plated,PTH,ComponentDrill
T11C0.0669
; #@! TA.AperFunction,Plated,PTH,ComponentDrill
T12C0.0730
; #@! TA.AperFunction,Plated,PTH,ComponentDrill
T13C0.1083
%
G90
G05
T1
X5.5906Y-1.4173
X5.5906Y-1.8504
X5.9843Y-3.189
X6.1024Y-1.8504
X6.1811Y-3.1102
X6.5748Y-4.0945
X8.1496Y-4.0157
T2
X7.9921Y-0.9449
X8.0709Y-0.9449
X8.1496Y-0.9449
T3
X3.3858Y-1.1024
X3.3858Y-1.2024
X7.989Y-1.1614
X8.389Y-1.1614
T4
X3.878Y-2.874
X3.9764Y-2.874
X4.0748Y-2.874
X4.8622Y-2.874
X4.9606Y-2.874
X5.0591Y-2.874
X6.122Y-3.8189
X6.2205Y-3.8189
X6.3189Y-3.8189
X6.5945Y-4.8622
X6.6821Y-2.062
X6.6929Y-4.8622
X6.7047Y-2.7756
X6.7821Y-2.062
X6.7913Y-4.8622
X6.8031Y-2.7756
X6.9016Y-2.7756
X7.1457Y-3.8189
X7.2441Y-3.8189
X7.3425Y-3.8189
X7.9724Y-2.3017
X8.0709Y-2.3017
X8.1693Y-2.3017
X8.4528Y-4.8622
X8.5512Y-4.8622
X8.6496Y-4.8622
T5
X3.1012Y-3.8034
X3.1012Y-3.9034
X3.2012Y-3.8034
X3.2012Y-3.9034
X3.3413Y-4.0445
X3.3413Y-4.1445
X3.4413Y-4.0445
X3.4413Y-4.1445
X3.5413Y-4.0445
X3.5413Y-4.1445
X3.6413Y-4.0445
X3.6413Y-4.1445
X3.7413Y-4.0445
X3.7413Y-4.1445
X3.8413Y-4.0445
X3.8413Y-4.1445
X3.9413Y-4.0445
X3.9413Y-4.1445
X4.0413Y-4.0445
X4.0413Y-4.1445
X4.1413Y-4.0445
X4.1413Y-4.1445
X4.2413Y-4.0445
X4.2413Y-4.1445
X4.3413Y-4.0445
X4.3413Y-4.1445
X4.4413Y-4.0445
X4.4413Y-4.1445
X4.5413Y-4.0445
X4.5413Y-4.1445
X4.6413Y-4.0445
X4.6413Y-4.1445
X4.7413Y-4.0445
X4.7413Y-4.1445
X4.8413Y-4.0445
X4.8413Y-4.1445
X4.9413Y-4.0445
X4.9413Y-4.1445
X5.0413Y-4.0445
X5.0413Y-4.1445
X5.1413Y-4.0445
X5.1413Y-4.1445
X5.2413Y-4.0445
X5.2413Y-4.1445
T6
X5.763Y-0.9642
X5.763Y-1.0642
X5.763Y-1.1642
X5.763Y-1.2642
X5.763Y-1.3642
X5.763Y-1.4642
X5.763Y-1.5642
X5.763Y-1.6642
X5.763Y-1.7642
X5.763Y-1.8642
X5.763Y-1.9642
X5.763Y-2.0642
X5.763Y-2.1642
X5.763Y-2.2642
X5.863Y-0.9642
X5.963Y-0.9642
X5.973Y-2.2572
X6.051Y-2.2572
X6.063Y-0.9642
X6.163Y-0.9642
X6.263Y-0.9642
X6.263Y-1.7642
X6.263Y-1.8642
X6.263Y-1.9642
X6.263Y-2.1642
X6.363Y-0.9642
X6.363Y-1.0642
X6.363Y-1.1642
X6.363Y-1.2642
X6.363Y-1.3642
X6.363Y-1.4642
X6.363Y-1.5642
X6.363Y-1.6642
X6.363Y-1.7642
X6.363Y-1.8642
X6.363Y-1.9642
X6.363Y-2.0642
X6.363Y-2.1642
X6.363Y-2.2642
X6.9685Y-0.9843
X6.9685Y-1.1811
X7.1654Y-0.9843
X7.1654Y-1.1811
X8.7402Y-1.9291
X8.7402Y-2.126
X8.937Y-1.9291
X8.937Y-2.126
X9.4488Y-3.7402
X9.4488Y-3.937
X9.6457Y-3.7402
X9.6457Y-3.937
T7
X3.3169Y-4.7047
X6.2106Y-4.5669
X6.2106Y-4.7047
X7.6634Y-1.5748
X7.8465Y-1.3583
X8.1634Y-1.5748
X8.3465Y-1.3583
T8
X8.8583Y-0.9409
T9
X8.8583Y-1.063
T10
X8.8583Y-1.3898
T11
X3.4803Y-4.4685
X3.5276Y-4.8031
X6.0Y-4.8031
X6.0472Y-4.4685
T12
X4.2757Y-3.5433
X4.4607Y-3.5433
X4.6457Y-3.5433
X7.8859Y-2.8346
X7.9134Y-4.6063
X7.9134Y-4.7913
X8.0709Y-2.8346
X8.8583Y-2.7953
X8.8583Y-2.9803
X9.5472Y-4.6063
X9.5472Y-4.7913
T13
X3.1496Y-2.1654
X3.1496Y-4.0945
X5.4331Y-2.1654
X5.4331Y-4.0945
T6
G00X3.7736Y-2.5787
M15
G01X3.8012Y-2.5787
M16
G05
G00X4.1516Y-2.5787
M15
G01X4.1791Y-2.5787
M16
G05
G00X4.7579Y-2.5787
M15
G01X4.7854Y-2.5787
M16
G05
G00X5.1358Y-2.5787
M15
G01X5.1634Y-2.5787
M16
G05
G00X6.0177Y-3.5236
M15
G01X6.0453Y-3.5236
M16
G05
G00X6.3957Y-3.5236
M15
G01X6.4232Y-3.5236
M16
G05
G00X6.4902Y-4.5669
M15
G01X6.5177Y-4.5669
M16
G05
G00X6.6004Y-2.4803
M15
G01X6.628Y-2.4803
M16
G05
G00X6.8681Y-4.5669
M15
G01X6.8957Y-4.5669
M16
G05
G00X6.9783Y-2.4803
M15
G01X7.0059Y-2.4803
M16
G05
G00X7.0413Y-3.5236
M15
G01X7.0689Y-3.5236
M16
G05
G00X7.4193Y-3.5236
M15
G01X7.4469Y-3.5236
M16
G05
G00X7.8681Y-2.0064
M15
G01X7.8957Y-2.0064
M16
G05
G00X8.2461Y-2.0064
M15
G01X8.2736Y-2.0064
M16
G05
G00X8.3484Y-4.5669
M15
G01X8.376Y-4.5669
M16
G05
G00X8.7264Y-4.5669
M15
G01X8.7539Y-4.5669
M16
G05
M30
