%TF.GenerationSoftware,KiCad,Pcbnew,8.0.4*%
%TF.CreationDate,2024-09-25T11:32:12+02:00*%
%TF.ProjectId,ys.granular,79732e67-7261-46e7-956c-61722e6b6963,rev?*%
%TF.SameCoordinates,Original*%
%TF.FileFunction,Legend,Top*%
%TF.FilePolarity,Positive*%
%FSLAX46Y46*%
G04 Gerber Fmt 4.6, Leading zero omitted, Abs format (unit mm)*
G04 Created by KiCad (PCBNEW 8.0.4) date 2024-09-25 11:32:12*
%MOMM*%
%LPD*%
G01*
G04 APERTURE LIST*
%ADD10C,0.150000*%
%ADD11C,0.200000*%
%ADD12C,0.158112*%
%ADD13C,0.127000*%
%ADD14C,0.120000*%
%ADD15C,0.300000*%
%ADD16C,0.400000*%
G04 APERTURE END LIST*
D10*
X204979755Y-19550360D02*
X204884465Y-19502715D01*
X204884465Y-19502715D02*
X204789175Y-19407426D01*
X204789175Y-19407426D02*
X204646240Y-19264491D01*
X204646240Y-19264491D02*
X204550951Y-19216846D01*
X204550951Y-19216846D02*
X204455661Y-19216846D01*
X204503306Y-19455070D02*
X204408016Y-19407426D01*
X204408016Y-19407426D02*
X204312726Y-19312136D01*
X204312726Y-19312136D02*
X204265081Y-19121556D01*
X204265081Y-19121556D02*
X204265081Y-18788042D01*
X204265081Y-18788042D02*
X204312726Y-18597462D01*
X204312726Y-18597462D02*
X204408016Y-18502172D01*
X204408016Y-18502172D02*
X204503306Y-18454527D01*
X204503306Y-18454527D02*
X204693885Y-18454527D01*
X204693885Y-18454527D02*
X204789175Y-18502172D01*
X204789175Y-18502172D02*
X204884465Y-18597462D01*
X204884465Y-18597462D02*
X204932110Y-18788042D01*
X204932110Y-18788042D02*
X204932110Y-19121556D01*
X204932110Y-19121556D02*
X204884465Y-19312136D01*
X204884465Y-19312136D02*
X204789175Y-19407426D01*
X204789175Y-19407426D02*
X204693885Y-19455070D01*
X204693885Y-19455070D02*
X204503306Y-19455070D01*
X205885008Y-19455070D02*
X205313269Y-19455070D01*
X205599139Y-19455070D02*
X205599139Y-18454527D01*
X205599139Y-18454527D02*
X205503849Y-18597462D01*
X205503849Y-18597462D02*
X205408559Y-18692752D01*
X205408559Y-18692752D02*
X205313269Y-18740397D01*
X177666667Y-35407200D02*
X177809524Y-35454819D01*
X177809524Y-35454819D02*
X178047619Y-35454819D01*
X178047619Y-35454819D02*
X178142857Y-35407200D01*
X178142857Y-35407200D02*
X178190476Y-35359580D01*
X178190476Y-35359580D02*
X178238095Y-35264342D01*
X178238095Y-35264342D02*
X178238095Y-35169104D01*
X178238095Y-35169104D02*
X178190476Y-35073866D01*
X178190476Y-35073866D02*
X178142857Y-35026247D01*
X178142857Y-35026247D02*
X178047619Y-34978628D01*
X178047619Y-34978628D02*
X177857143Y-34931009D01*
X177857143Y-34931009D02*
X177761905Y-34883390D01*
X177761905Y-34883390D02*
X177714286Y-34835771D01*
X177714286Y-34835771D02*
X177666667Y-34740533D01*
X177666667Y-34740533D02*
X177666667Y-34645295D01*
X177666667Y-34645295D02*
X177714286Y-34550057D01*
X177714286Y-34550057D02*
X177761905Y-34502438D01*
X177761905Y-34502438D02*
X177857143Y-34454819D01*
X177857143Y-34454819D02*
X178095238Y-34454819D01*
X178095238Y-34454819D02*
X178238095Y-34502438D01*
X178571429Y-34454819D02*
X178809524Y-35454819D01*
X178809524Y-35454819D02*
X179000000Y-34740533D01*
X179000000Y-34740533D02*
X179190476Y-35454819D01*
X179190476Y-35454819D02*
X179428572Y-34454819D01*
X180238095Y-34788152D02*
X180238095Y-35454819D01*
X180000000Y-34407200D02*
X179761905Y-35121485D01*
X179761905Y-35121485D02*
X180380952Y-35121485D01*
X197929321Y-54024929D02*
X197479377Y-54339890D01*
X197929321Y-54564862D02*
X196984439Y-54564862D01*
X196984439Y-54564862D02*
X196984439Y-54204907D01*
X196984439Y-54204907D02*
X197029433Y-54114918D01*
X197029433Y-54114918D02*
X197074428Y-54069923D01*
X197074428Y-54069923D02*
X197164416Y-54024929D01*
X197164416Y-54024929D02*
X197299400Y-54024929D01*
X197299400Y-54024929D02*
X197389388Y-54069923D01*
X197389388Y-54069923D02*
X197434383Y-54114918D01*
X197434383Y-54114918D02*
X197479377Y-54204907D01*
X197479377Y-54204907D02*
X197479377Y-54564862D01*
X196984439Y-53754963D02*
X197929321Y-53440002D01*
X197929321Y-53440002D02*
X196984439Y-53125041D01*
X196984439Y-52900069D02*
X196984439Y-52315142D01*
X196984439Y-52315142D02*
X197344394Y-52630103D01*
X197344394Y-52630103D02*
X197344394Y-52495120D01*
X197344394Y-52495120D02*
X197389388Y-52405131D01*
X197389388Y-52405131D02*
X197434383Y-52360137D01*
X197434383Y-52360137D02*
X197524371Y-52315142D01*
X197524371Y-52315142D02*
X197749343Y-52315142D01*
X197749343Y-52315142D02*
X197839332Y-52360137D01*
X197839332Y-52360137D02*
X197884327Y-52405131D01*
X197884327Y-52405131D02*
X197929321Y-52495120D01*
X197929321Y-52495120D02*
X197929321Y-52765086D01*
X197929321Y-52765086D02*
X197884327Y-52855075D01*
X197884327Y-52855075D02*
X197839332Y-52900069D01*
X222666667Y-60407200D02*
X222809524Y-60454819D01*
X222809524Y-60454819D02*
X223047619Y-60454819D01*
X223047619Y-60454819D02*
X223142857Y-60407200D01*
X223142857Y-60407200D02*
X223190476Y-60359580D01*
X223190476Y-60359580D02*
X223238095Y-60264342D01*
X223238095Y-60264342D02*
X223238095Y-60169104D01*
X223238095Y-60169104D02*
X223190476Y-60073866D01*
X223190476Y-60073866D02*
X223142857Y-60026247D01*
X223142857Y-60026247D02*
X223047619Y-59978628D01*
X223047619Y-59978628D02*
X222857143Y-59931009D01*
X222857143Y-59931009D02*
X222761905Y-59883390D01*
X222761905Y-59883390D02*
X222714286Y-59835771D01*
X222714286Y-59835771D02*
X222666667Y-59740533D01*
X222666667Y-59740533D02*
X222666667Y-59645295D01*
X222666667Y-59645295D02*
X222714286Y-59550057D01*
X222714286Y-59550057D02*
X222761905Y-59502438D01*
X222761905Y-59502438D02*
X222857143Y-59454819D01*
X222857143Y-59454819D02*
X223095238Y-59454819D01*
X223095238Y-59454819D02*
X223238095Y-59502438D01*
X223571429Y-59454819D02*
X223809524Y-60454819D01*
X223809524Y-60454819D02*
X224000000Y-59740533D01*
X224000000Y-59740533D02*
X224190476Y-60454819D01*
X224190476Y-60454819D02*
X224428572Y-59454819D01*
X225285714Y-59454819D02*
X224809524Y-59454819D01*
X224809524Y-59454819D02*
X224761905Y-59931009D01*
X224761905Y-59931009D02*
X224809524Y-59883390D01*
X224809524Y-59883390D02*
X224904762Y-59835771D01*
X224904762Y-59835771D02*
X225142857Y-59835771D01*
X225142857Y-59835771D02*
X225238095Y-59883390D01*
X225238095Y-59883390D02*
X225285714Y-59931009D01*
X225285714Y-59931009D02*
X225333333Y-60026247D01*
X225333333Y-60026247D02*
X225333333Y-60264342D01*
X225333333Y-60264342D02*
X225285714Y-60359580D01*
X225285714Y-60359580D02*
X225238095Y-60407200D01*
X225238095Y-60407200D02*
X225142857Y-60454819D01*
X225142857Y-60454819D02*
X224904762Y-60454819D01*
X224904762Y-60454819D02*
X224809524Y-60407200D01*
X224809524Y-60407200D02*
X224761905Y-60359580D01*
X166909819Y-48323333D02*
X167624104Y-48323333D01*
X167624104Y-48323333D02*
X167766961Y-48370952D01*
X167766961Y-48370952D02*
X167862200Y-48466190D01*
X167862200Y-48466190D02*
X167909819Y-48609047D01*
X167909819Y-48609047D02*
X167909819Y-48704285D01*
X166909819Y-47942380D02*
X166909819Y-47323333D01*
X166909819Y-47323333D02*
X167290771Y-47656666D01*
X167290771Y-47656666D02*
X167290771Y-47513809D01*
X167290771Y-47513809D02*
X167338390Y-47418571D01*
X167338390Y-47418571D02*
X167386009Y-47370952D01*
X167386009Y-47370952D02*
X167481247Y-47323333D01*
X167481247Y-47323333D02*
X167719342Y-47323333D01*
X167719342Y-47323333D02*
X167814580Y-47370952D01*
X167814580Y-47370952D02*
X167862200Y-47418571D01*
X167862200Y-47418571D02*
X167909819Y-47513809D01*
X167909819Y-47513809D02*
X167909819Y-47799523D01*
X167909819Y-47799523D02*
X167862200Y-47894761D01*
X167862200Y-47894761D02*
X167814580Y-47942380D01*
X200549770Y-67695367D02*
X200692688Y-67743006D01*
X200692688Y-67743006D02*
X200930884Y-67743006D01*
X200930884Y-67743006D02*
X201026163Y-67695367D01*
X201026163Y-67695367D02*
X201073802Y-67647727D01*
X201073802Y-67647727D02*
X201121441Y-67552449D01*
X201121441Y-67552449D02*
X201121441Y-67457170D01*
X201121441Y-67457170D02*
X201073802Y-67361892D01*
X201073802Y-67361892D02*
X201026163Y-67314252D01*
X201026163Y-67314252D02*
X200930884Y-67266613D01*
X200930884Y-67266613D02*
X200740327Y-67218974D01*
X200740327Y-67218974D02*
X200645048Y-67171334D01*
X200645048Y-67171334D02*
X200597409Y-67123695D01*
X200597409Y-67123695D02*
X200549770Y-67028417D01*
X200549770Y-67028417D02*
X200549770Y-66933138D01*
X200549770Y-66933138D02*
X200597409Y-66837859D01*
X200597409Y-66837859D02*
X200645048Y-66790220D01*
X200645048Y-66790220D02*
X200740327Y-66742581D01*
X200740327Y-66742581D02*
X200978523Y-66742581D01*
X200978523Y-66742581D02*
X201121441Y-66790220D01*
X201454916Y-66742581D02*
X201693113Y-67743006D01*
X201693113Y-67743006D02*
X201883670Y-67028417D01*
X201883670Y-67028417D02*
X202074227Y-67743006D01*
X202074227Y-67743006D02*
X202312424Y-66742581D01*
X202836456Y-67171334D02*
X202741177Y-67123695D01*
X202741177Y-67123695D02*
X202693538Y-67076056D01*
X202693538Y-67076056D02*
X202645899Y-66980777D01*
X202645899Y-66980777D02*
X202645899Y-66933138D01*
X202645899Y-66933138D02*
X202693538Y-66837859D01*
X202693538Y-66837859D02*
X202741177Y-66790220D01*
X202741177Y-66790220D02*
X202836456Y-66742581D01*
X202836456Y-66742581D02*
X203027013Y-66742581D01*
X203027013Y-66742581D02*
X203122292Y-66790220D01*
X203122292Y-66790220D02*
X203169931Y-66837859D01*
X203169931Y-66837859D02*
X203217570Y-66933138D01*
X203217570Y-66933138D02*
X203217570Y-66980777D01*
X203217570Y-66980777D02*
X203169931Y-67076056D01*
X203169931Y-67076056D02*
X203122292Y-67123695D01*
X203122292Y-67123695D02*
X203027013Y-67171334D01*
X203027013Y-67171334D02*
X202836456Y-67171334D01*
X202836456Y-67171334D02*
X202741177Y-67218974D01*
X202741177Y-67218974D02*
X202693538Y-67266613D01*
X202693538Y-67266613D02*
X202645899Y-67361892D01*
X202645899Y-67361892D02*
X202645899Y-67552449D01*
X202645899Y-67552449D02*
X202693538Y-67647727D01*
X202693538Y-67647727D02*
X202741177Y-67695367D01*
X202741177Y-67695367D02*
X202836456Y-67743006D01*
X202836456Y-67743006D02*
X203027013Y-67743006D01*
X203027013Y-67743006D02*
X203122292Y-67695367D01*
X203122292Y-67695367D02*
X203169931Y-67647727D01*
X203169931Y-67647727D02*
X203217570Y-67552449D01*
X203217570Y-67552449D02*
X203217570Y-67361892D01*
X203217570Y-67361892D02*
X203169931Y-67266613D01*
X203169931Y-67266613D02*
X203122292Y-67218974D01*
X203122292Y-67218974D02*
X203027013Y-67171334D01*
X238195367Y-121450229D02*
X238243006Y-121307312D01*
X238243006Y-121307312D02*
X238243006Y-121069115D01*
X238243006Y-121069115D02*
X238195367Y-120973837D01*
X238195367Y-120973837D02*
X238147727Y-120926197D01*
X238147727Y-120926197D02*
X238052449Y-120878558D01*
X238052449Y-120878558D02*
X237957170Y-120878558D01*
X237957170Y-120878558D02*
X237861892Y-120926197D01*
X237861892Y-120926197D02*
X237814252Y-120973837D01*
X237814252Y-120973837D02*
X237766613Y-121069115D01*
X237766613Y-121069115D02*
X237718974Y-121259672D01*
X237718974Y-121259672D02*
X237671334Y-121354951D01*
X237671334Y-121354951D02*
X237623695Y-121402590D01*
X237623695Y-121402590D02*
X237528417Y-121450229D01*
X237528417Y-121450229D02*
X237433138Y-121450229D01*
X237433138Y-121450229D02*
X237337859Y-121402590D01*
X237337859Y-121402590D02*
X237290220Y-121354951D01*
X237290220Y-121354951D02*
X237242581Y-121259672D01*
X237242581Y-121259672D02*
X237242581Y-121021476D01*
X237242581Y-121021476D02*
X237290220Y-120878558D01*
X237242581Y-120545083D02*
X238243006Y-120306886D01*
X238243006Y-120306886D02*
X237528417Y-120116329D01*
X237528417Y-120116329D02*
X238243006Y-119925772D01*
X238243006Y-119925772D02*
X237242581Y-119687576D01*
X237242581Y-119401740D02*
X237242581Y-118734790D01*
X237242581Y-118734790D02*
X238243006Y-119163543D01*
X115083430Y-95119387D02*
X115226348Y-95167026D01*
X115226348Y-95167026D02*
X115464544Y-95167026D01*
X115464544Y-95167026D02*
X115559823Y-95119387D01*
X115559823Y-95119387D02*
X115607462Y-95071747D01*
X115607462Y-95071747D02*
X115655101Y-94976469D01*
X115655101Y-94976469D02*
X115655101Y-94881190D01*
X115655101Y-94881190D02*
X115607462Y-94785912D01*
X115607462Y-94785912D02*
X115559823Y-94738272D01*
X115559823Y-94738272D02*
X115464544Y-94690633D01*
X115464544Y-94690633D02*
X115273987Y-94642994D01*
X115273987Y-94642994D02*
X115178708Y-94595354D01*
X115178708Y-94595354D02*
X115131069Y-94547715D01*
X115131069Y-94547715D02*
X115083430Y-94452437D01*
X115083430Y-94452437D02*
X115083430Y-94357158D01*
X115083430Y-94357158D02*
X115131069Y-94261879D01*
X115131069Y-94261879D02*
X115178708Y-94214240D01*
X115178708Y-94214240D02*
X115273987Y-94166601D01*
X115273987Y-94166601D02*
X115512183Y-94166601D01*
X115512183Y-94166601D02*
X115655101Y-94214240D01*
X115988576Y-94166601D02*
X116226773Y-95167026D01*
X116226773Y-95167026D02*
X116417330Y-94452437D01*
X116417330Y-94452437D02*
X116607887Y-95167026D01*
X116607887Y-95167026D02*
X116846084Y-94166601D01*
X117131919Y-94166601D02*
X117751230Y-94166601D01*
X117751230Y-94166601D02*
X117417755Y-94547715D01*
X117417755Y-94547715D02*
X117560673Y-94547715D01*
X117560673Y-94547715D02*
X117655952Y-94595354D01*
X117655952Y-94595354D02*
X117703591Y-94642994D01*
X117703591Y-94642994D02*
X117751230Y-94738272D01*
X117751230Y-94738272D02*
X117751230Y-94976469D01*
X117751230Y-94976469D02*
X117703591Y-95071747D01*
X117703591Y-95071747D02*
X117655952Y-95119387D01*
X117655952Y-95119387D02*
X117560673Y-95167026D01*
X117560673Y-95167026D02*
X117274837Y-95167026D01*
X117274837Y-95167026D02*
X117179559Y-95119387D01*
X117179559Y-95119387D02*
X117131919Y-95071747D01*
X220695367Y-75450229D02*
X220743006Y-75307312D01*
X220743006Y-75307312D02*
X220743006Y-75069115D01*
X220743006Y-75069115D02*
X220695367Y-74973837D01*
X220695367Y-74973837D02*
X220647727Y-74926197D01*
X220647727Y-74926197D02*
X220552449Y-74878558D01*
X220552449Y-74878558D02*
X220457170Y-74878558D01*
X220457170Y-74878558D02*
X220361892Y-74926197D01*
X220361892Y-74926197D02*
X220314252Y-74973837D01*
X220314252Y-74973837D02*
X220266613Y-75069115D01*
X220266613Y-75069115D02*
X220218974Y-75259672D01*
X220218974Y-75259672D02*
X220171334Y-75354951D01*
X220171334Y-75354951D02*
X220123695Y-75402590D01*
X220123695Y-75402590D02*
X220028417Y-75450229D01*
X220028417Y-75450229D02*
X219933138Y-75450229D01*
X219933138Y-75450229D02*
X219837859Y-75402590D01*
X219837859Y-75402590D02*
X219790220Y-75354951D01*
X219790220Y-75354951D02*
X219742581Y-75259672D01*
X219742581Y-75259672D02*
X219742581Y-75021476D01*
X219742581Y-75021476D02*
X219790220Y-74878558D01*
X219742581Y-74545083D02*
X220743006Y-74306886D01*
X220743006Y-74306886D02*
X220028417Y-74116329D01*
X220028417Y-74116329D02*
X220743006Y-73925772D01*
X220743006Y-73925772D02*
X219742581Y-73687576D01*
X219837859Y-73354100D02*
X219790220Y-73306461D01*
X219790220Y-73306461D02*
X219742581Y-73211183D01*
X219742581Y-73211183D02*
X219742581Y-72972986D01*
X219742581Y-72972986D02*
X219790220Y-72877708D01*
X219790220Y-72877708D02*
X219837859Y-72830068D01*
X219837859Y-72830068D02*
X219933138Y-72782429D01*
X219933138Y-72782429D02*
X220028417Y-72782429D01*
X220028417Y-72782429D02*
X220171334Y-72830068D01*
X220171334Y-72830068D02*
X220743006Y-73401740D01*
X220743006Y-73401740D02*
X220743006Y-72782429D01*
X200833333Y-40454819D02*
X200500000Y-39978628D01*
X200261905Y-40454819D02*
X200261905Y-39454819D01*
X200261905Y-39454819D02*
X200642857Y-39454819D01*
X200642857Y-39454819D02*
X200738095Y-39502438D01*
X200738095Y-39502438D02*
X200785714Y-39550057D01*
X200785714Y-39550057D02*
X200833333Y-39645295D01*
X200833333Y-39645295D02*
X200833333Y-39788152D01*
X200833333Y-39788152D02*
X200785714Y-39883390D01*
X200785714Y-39883390D02*
X200738095Y-39931009D01*
X200738095Y-39931009D02*
X200642857Y-39978628D01*
X200642857Y-39978628D02*
X200261905Y-39978628D01*
X201785714Y-40454819D02*
X201214286Y-40454819D01*
X201500000Y-40454819D02*
X201500000Y-39454819D01*
X201500000Y-39454819D02*
X201404762Y-39597676D01*
X201404762Y-39597676D02*
X201309524Y-39692914D01*
X201309524Y-39692914D02*
X201214286Y-39740533D01*
X240841667Y-91272200D02*
X240984524Y-91319819D01*
X240984524Y-91319819D02*
X241222619Y-91319819D01*
X241222619Y-91319819D02*
X241317857Y-91272200D01*
X241317857Y-91272200D02*
X241365476Y-91224580D01*
X241365476Y-91224580D02*
X241413095Y-91129342D01*
X241413095Y-91129342D02*
X241413095Y-91034104D01*
X241413095Y-91034104D02*
X241365476Y-90938866D01*
X241365476Y-90938866D02*
X241317857Y-90891247D01*
X241317857Y-90891247D02*
X241222619Y-90843628D01*
X241222619Y-90843628D02*
X241032143Y-90796009D01*
X241032143Y-90796009D02*
X240936905Y-90748390D01*
X240936905Y-90748390D02*
X240889286Y-90700771D01*
X240889286Y-90700771D02*
X240841667Y-90605533D01*
X240841667Y-90605533D02*
X240841667Y-90510295D01*
X240841667Y-90510295D02*
X240889286Y-90415057D01*
X240889286Y-90415057D02*
X240936905Y-90367438D01*
X240936905Y-90367438D02*
X241032143Y-90319819D01*
X241032143Y-90319819D02*
X241270238Y-90319819D01*
X241270238Y-90319819D02*
X241413095Y-90367438D01*
X241746429Y-90319819D02*
X241984524Y-91319819D01*
X241984524Y-91319819D02*
X242175000Y-90605533D01*
X242175000Y-90605533D02*
X242365476Y-91319819D01*
X242365476Y-91319819D02*
X242603572Y-90319819D01*
X243413095Y-90319819D02*
X243222619Y-90319819D01*
X243222619Y-90319819D02*
X243127381Y-90367438D01*
X243127381Y-90367438D02*
X243079762Y-90415057D01*
X243079762Y-90415057D02*
X242984524Y-90557914D01*
X242984524Y-90557914D02*
X242936905Y-90748390D01*
X242936905Y-90748390D02*
X242936905Y-91129342D01*
X242936905Y-91129342D02*
X242984524Y-91224580D01*
X242984524Y-91224580D02*
X243032143Y-91272200D01*
X243032143Y-91272200D02*
X243127381Y-91319819D01*
X243127381Y-91319819D02*
X243317857Y-91319819D01*
X243317857Y-91319819D02*
X243413095Y-91272200D01*
X243413095Y-91272200D02*
X243460714Y-91224580D01*
X243460714Y-91224580D02*
X243508333Y-91129342D01*
X243508333Y-91129342D02*
X243508333Y-90891247D01*
X243508333Y-90891247D02*
X243460714Y-90796009D01*
X243460714Y-90796009D02*
X243413095Y-90748390D01*
X243413095Y-90748390D02*
X243317857Y-90700771D01*
X243317857Y-90700771D02*
X243127381Y-90700771D01*
X243127381Y-90700771D02*
X243032143Y-90748390D01*
X243032143Y-90748390D02*
X242984524Y-90796009D01*
X242984524Y-90796009D02*
X242936905Y-90891247D01*
X220636666Y-24434819D02*
X220636666Y-25149104D01*
X220636666Y-25149104D02*
X220589047Y-25291961D01*
X220589047Y-25291961D02*
X220493809Y-25387200D01*
X220493809Y-25387200D02*
X220350952Y-25434819D01*
X220350952Y-25434819D02*
X220255714Y-25434819D01*
X221636666Y-25434819D02*
X221065238Y-25434819D01*
X221350952Y-25434819D02*
X221350952Y-24434819D01*
X221350952Y-24434819D02*
X221255714Y-24577676D01*
X221255714Y-24577676D02*
X221160476Y-24672914D01*
X221160476Y-24672914D02*
X221065238Y-24720533D01*
X205483333Y-34454819D02*
X205150000Y-33978628D01*
X204911905Y-34454819D02*
X204911905Y-33454819D01*
X204911905Y-33454819D02*
X205292857Y-33454819D01*
X205292857Y-33454819D02*
X205388095Y-33502438D01*
X205388095Y-33502438D02*
X205435714Y-33550057D01*
X205435714Y-33550057D02*
X205483333Y-33645295D01*
X205483333Y-33645295D02*
X205483333Y-33788152D01*
X205483333Y-33788152D02*
X205435714Y-33883390D01*
X205435714Y-33883390D02*
X205388095Y-33931009D01*
X205388095Y-33931009D02*
X205292857Y-33978628D01*
X205292857Y-33978628D02*
X204911905Y-33978628D01*
X205864286Y-33550057D02*
X205911905Y-33502438D01*
X205911905Y-33502438D02*
X206007143Y-33454819D01*
X206007143Y-33454819D02*
X206245238Y-33454819D01*
X206245238Y-33454819D02*
X206340476Y-33502438D01*
X206340476Y-33502438D02*
X206388095Y-33550057D01*
X206388095Y-33550057D02*
X206435714Y-33645295D01*
X206435714Y-33645295D02*
X206435714Y-33740533D01*
X206435714Y-33740533D02*
X206388095Y-33883390D01*
X206388095Y-33883390D02*
X205816667Y-34454819D01*
X205816667Y-34454819D02*
X206435714Y-34454819D01*
X177029321Y-95587429D02*
X176579377Y-95902390D01*
X177029321Y-96127362D02*
X176084439Y-96127362D01*
X176084439Y-96127362D02*
X176084439Y-95767407D01*
X176084439Y-95767407D02*
X176129433Y-95677418D01*
X176129433Y-95677418D02*
X176174428Y-95632423D01*
X176174428Y-95632423D02*
X176264416Y-95587429D01*
X176264416Y-95587429D02*
X176399400Y-95587429D01*
X176399400Y-95587429D02*
X176489388Y-95632423D01*
X176489388Y-95632423D02*
X176534383Y-95677418D01*
X176534383Y-95677418D02*
X176579377Y-95767407D01*
X176579377Y-95767407D02*
X176579377Y-96127362D01*
X176084439Y-95317463D02*
X177029321Y-95002502D01*
X177029321Y-95002502D02*
X176084439Y-94687541D01*
X176174428Y-94417575D02*
X176129433Y-94372581D01*
X176129433Y-94372581D02*
X176084439Y-94282592D01*
X176084439Y-94282592D02*
X176084439Y-94057620D01*
X176084439Y-94057620D02*
X176129433Y-93967631D01*
X176129433Y-93967631D02*
X176174428Y-93922637D01*
X176174428Y-93922637D02*
X176264416Y-93877642D01*
X176264416Y-93877642D02*
X176354405Y-93877642D01*
X176354405Y-93877642D02*
X176489388Y-93922637D01*
X176489388Y-93922637D02*
X177029321Y-94462569D01*
X177029321Y-94462569D02*
X177029321Y-93877642D01*
X78954819Y-29659047D02*
X78954819Y-30135237D01*
X78954819Y-30135237D02*
X77954819Y-30135237D01*
X78431009Y-29325713D02*
X78431009Y-28992380D01*
X78954819Y-28849523D02*
X78954819Y-29325713D01*
X78954819Y-29325713D02*
X77954819Y-29325713D01*
X77954819Y-29325713D02*
X77954819Y-28849523D01*
X78954819Y-28420951D02*
X77954819Y-28420951D01*
X77954819Y-28420951D02*
X77954819Y-28182856D01*
X77954819Y-28182856D02*
X78002438Y-28039999D01*
X78002438Y-28039999D02*
X78097676Y-27944761D01*
X78097676Y-27944761D02*
X78192914Y-27897142D01*
X78192914Y-27897142D02*
X78383390Y-27849523D01*
X78383390Y-27849523D02*
X78526247Y-27849523D01*
X78526247Y-27849523D02*
X78716723Y-27897142D01*
X78716723Y-27897142D02*
X78811961Y-27944761D01*
X78811961Y-27944761D02*
X78907200Y-28039999D01*
X78907200Y-28039999D02*
X78954819Y-28182856D01*
X78954819Y-28182856D02*
X78954819Y-28420951D01*
X78954819Y-26897142D02*
X78954819Y-27468570D01*
X78954819Y-27182856D02*
X77954819Y-27182856D01*
X77954819Y-27182856D02*
X78097676Y-27278094D01*
X78097676Y-27278094D02*
X78192914Y-27373332D01*
X78192914Y-27373332D02*
X78240533Y-27468570D01*
X94029321Y-71587429D02*
X93579377Y-71902390D01*
X94029321Y-72127362D02*
X93084439Y-72127362D01*
X93084439Y-72127362D02*
X93084439Y-71767407D01*
X93084439Y-71767407D02*
X93129433Y-71677418D01*
X93129433Y-71677418D02*
X93174428Y-71632423D01*
X93174428Y-71632423D02*
X93264416Y-71587429D01*
X93264416Y-71587429D02*
X93399400Y-71587429D01*
X93399400Y-71587429D02*
X93489388Y-71632423D01*
X93489388Y-71632423D02*
X93534383Y-71677418D01*
X93534383Y-71677418D02*
X93579377Y-71767407D01*
X93579377Y-71767407D02*
X93579377Y-72127362D01*
X93084439Y-71317463D02*
X94029321Y-71002502D01*
X94029321Y-71002502D02*
X93084439Y-70687541D01*
X93084439Y-69967631D02*
X93084439Y-70147609D01*
X93084439Y-70147609D02*
X93129433Y-70237597D01*
X93129433Y-70237597D02*
X93174428Y-70282592D01*
X93174428Y-70282592D02*
X93309411Y-70372581D01*
X93309411Y-70372581D02*
X93489388Y-70417575D01*
X93489388Y-70417575D02*
X93849343Y-70417575D01*
X93849343Y-70417575D02*
X93939332Y-70372581D01*
X93939332Y-70372581D02*
X93984327Y-70327586D01*
X93984327Y-70327586D02*
X94029321Y-70237597D01*
X94029321Y-70237597D02*
X94029321Y-70057620D01*
X94029321Y-70057620D02*
X93984327Y-69967631D01*
X93984327Y-69967631D02*
X93939332Y-69922637D01*
X93939332Y-69922637D02*
X93849343Y-69877642D01*
X93849343Y-69877642D02*
X93624371Y-69877642D01*
X93624371Y-69877642D02*
X93534383Y-69922637D01*
X93534383Y-69922637D02*
X93489388Y-69967631D01*
X93489388Y-69967631D02*
X93444394Y-70057620D01*
X93444394Y-70057620D02*
X93444394Y-70237597D01*
X93444394Y-70237597D02*
X93489388Y-70327586D01*
X93489388Y-70327586D02*
X93534383Y-70372581D01*
X93534383Y-70372581D02*
X93624371Y-70417575D01*
X196695367Y-121450229D02*
X196743006Y-121307312D01*
X196743006Y-121307312D02*
X196743006Y-121069115D01*
X196743006Y-121069115D02*
X196695367Y-120973837D01*
X196695367Y-120973837D02*
X196647727Y-120926197D01*
X196647727Y-120926197D02*
X196552449Y-120878558D01*
X196552449Y-120878558D02*
X196457170Y-120878558D01*
X196457170Y-120878558D02*
X196361892Y-120926197D01*
X196361892Y-120926197D02*
X196314252Y-120973837D01*
X196314252Y-120973837D02*
X196266613Y-121069115D01*
X196266613Y-121069115D02*
X196218974Y-121259672D01*
X196218974Y-121259672D02*
X196171334Y-121354951D01*
X196171334Y-121354951D02*
X196123695Y-121402590D01*
X196123695Y-121402590D02*
X196028417Y-121450229D01*
X196028417Y-121450229D02*
X195933138Y-121450229D01*
X195933138Y-121450229D02*
X195837859Y-121402590D01*
X195837859Y-121402590D02*
X195790220Y-121354951D01*
X195790220Y-121354951D02*
X195742581Y-121259672D01*
X195742581Y-121259672D02*
X195742581Y-121021476D01*
X195742581Y-121021476D02*
X195790220Y-120878558D01*
X195742581Y-120545083D02*
X196743006Y-120306886D01*
X196743006Y-120306886D02*
X196028417Y-120116329D01*
X196028417Y-120116329D02*
X196743006Y-119925772D01*
X196743006Y-119925772D02*
X195742581Y-119687576D01*
X196743006Y-118782429D02*
X196743006Y-119354100D01*
X196743006Y-119068265D02*
X195742581Y-119068265D01*
X195742581Y-119068265D02*
X195885499Y-119163543D01*
X195885499Y-119163543D02*
X195980777Y-119258822D01*
X195980777Y-119258822D02*
X196028417Y-119354100D01*
X210229321Y-122087429D02*
X209779377Y-122402390D01*
X210229321Y-122627362D02*
X209284439Y-122627362D01*
X209284439Y-122627362D02*
X209284439Y-122267407D01*
X209284439Y-122267407D02*
X209329433Y-122177418D01*
X209329433Y-122177418D02*
X209374428Y-122132423D01*
X209374428Y-122132423D02*
X209464416Y-122087429D01*
X209464416Y-122087429D02*
X209599400Y-122087429D01*
X209599400Y-122087429D02*
X209689388Y-122132423D01*
X209689388Y-122132423D02*
X209734383Y-122177418D01*
X209734383Y-122177418D02*
X209779377Y-122267407D01*
X209779377Y-122267407D02*
X209779377Y-122627362D01*
X209284439Y-121817463D02*
X210229321Y-121502502D01*
X210229321Y-121502502D02*
X209284439Y-121187541D01*
X209599400Y-120467631D02*
X210229321Y-120467631D01*
X209239445Y-120692603D02*
X209914360Y-120917575D01*
X209914360Y-120917575D02*
X209914360Y-120332648D01*
X155129761Y-125614819D02*
X154796428Y-125138628D01*
X154558333Y-125614819D02*
X154558333Y-124614819D01*
X154558333Y-124614819D02*
X154939285Y-124614819D01*
X154939285Y-124614819D02*
X155034523Y-124662438D01*
X155034523Y-124662438D02*
X155082142Y-124710057D01*
X155082142Y-124710057D02*
X155129761Y-124805295D01*
X155129761Y-124805295D02*
X155129761Y-124948152D01*
X155129761Y-124948152D02*
X155082142Y-125043390D01*
X155082142Y-125043390D02*
X155034523Y-125091009D01*
X155034523Y-125091009D02*
X154939285Y-125138628D01*
X154939285Y-125138628D02*
X154558333Y-125138628D01*
X155415476Y-124614819D02*
X155748809Y-125614819D01*
X155748809Y-125614819D02*
X156082142Y-124614819D01*
X156939285Y-125614819D02*
X156367857Y-125614819D01*
X156653571Y-125614819D02*
X156653571Y-124614819D01*
X156653571Y-124614819D02*
X156558333Y-124757676D01*
X156558333Y-124757676D02*
X156463095Y-124852914D01*
X156463095Y-124852914D02*
X156367857Y-124900533D01*
X208841905Y-29954819D02*
X208841905Y-28954819D01*
X208841905Y-28954819D02*
X209080000Y-28954819D01*
X209080000Y-28954819D02*
X209222857Y-29002438D01*
X209222857Y-29002438D02*
X209318095Y-29097676D01*
X209318095Y-29097676D02*
X209365714Y-29192914D01*
X209365714Y-29192914D02*
X209413333Y-29383390D01*
X209413333Y-29383390D02*
X209413333Y-29526247D01*
X209413333Y-29526247D02*
X209365714Y-29716723D01*
X209365714Y-29716723D02*
X209318095Y-29811961D01*
X209318095Y-29811961D02*
X209222857Y-29907200D01*
X209222857Y-29907200D02*
X209080000Y-29954819D01*
X209080000Y-29954819D02*
X208841905Y-29954819D01*
X210365714Y-29954819D02*
X209794286Y-29954819D01*
X210080000Y-29954819D02*
X210080000Y-28954819D01*
X210080000Y-28954819D02*
X209984762Y-29097676D01*
X209984762Y-29097676D02*
X209889524Y-29192914D01*
X209889524Y-29192914D02*
X209794286Y-29240533D01*
X202658095Y-28054819D02*
X202658095Y-27054819D01*
X203229523Y-28054819D02*
X202800952Y-27483390D01*
X203229523Y-27054819D02*
X202658095Y-27626247D01*
X163029321Y-122087429D02*
X162579377Y-122402390D01*
X163029321Y-122627362D02*
X162084439Y-122627362D01*
X162084439Y-122627362D02*
X162084439Y-122267407D01*
X162084439Y-122267407D02*
X162129433Y-122177418D01*
X162129433Y-122177418D02*
X162174428Y-122132423D01*
X162174428Y-122132423D02*
X162264416Y-122087429D01*
X162264416Y-122087429D02*
X162399400Y-122087429D01*
X162399400Y-122087429D02*
X162489388Y-122132423D01*
X162489388Y-122132423D02*
X162534383Y-122177418D01*
X162534383Y-122177418D02*
X162579377Y-122267407D01*
X162579377Y-122267407D02*
X162579377Y-122627362D01*
X162084439Y-121817463D02*
X163029321Y-121502502D01*
X163029321Y-121502502D02*
X162084439Y-121187541D01*
X163029321Y-120827586D02*
X163029321Y-120647609D01*
X163029321Y-120647609D02*
X162984327Y-120557620D01*
X162984327Y-120557620D02*
X162939332Y-120512626D01*
X162939332Y-120512626D02*
X162804349Y-120422637D01*
X162804349Y-120422637D02*
X162624371Y-120377642D01*
X162624371Y-120377642D02*
X162264416Y-120377642D01*
X162264416Y-120377642D02*
X162174428Y-120422637D01*
X162174428Y-120422637D02*
X162129433Y-120467631D01*
X162129433Y-120467631D02*
X162084439Y-120557620D01*
X162084439Y-120557620D02*
X162084439Y-120737597D01*
X162084439Y-120737597D02*
X162129433Y-120827586D01*
X162129433Y-120827586D02*
X162174428Y-120872581D01*
X162174428Y-120872581D02*
X162264416Y-120917575D01*
X162264416Y-120917575D02*
X162489388Y-120917575D01*
X162489388Y-120917575D02*
X162579377Y-120872581D01*
X162579377Y-120872581D02*
X162624371Y-120827586D01*
X162624371Y-120827586D02*
X162669366Y-120737597D01*
X162669366Y-120737597D02*
X162669366Y-120557620D01*
X162669366Y-120557620D02*
X162624371Y-120467631D01*
X162624371Y-120467631D02*
X162579377Y-120422637D01*
X162579377Y-120422637D02*
X162489388Y-120377642D01*
X138241666Y-108589819D02*
X138241666Y-109304104D01*
X138241666Y-109304104D02*
X138194047Y-109446961D01*
X138194047Y-109446961D02*
X138098809Y-109542200D01*
X138098809Y-109542200D02*
X137955952Y-109589819D01*
X137955952Y-109589819D02*
X137860714Y-109589819D01*
X138670238Y-108685057D02*
X138717857Y-108637438D01*
X138717857Y-108637438D02*
X138813095Y-108589819D01*
X138813095Y-108589819D02*
X139051190Y-108589819D01*
X139051190Y-108589819D02*
X139146428Y-108637438D01*
X139146428Y-108637438D02*
X139194047Y-108685057D01*
X139194047Y-108685057D02*
X139241666Y-108780295D01*
X139241666Y-108780295D02*
X139241666Y-108875533D01*
X139241666Y-108875533D02*
X139194047Y-109018390D01*
X139194047Y-109018390D02*
X138622619Y-109589819D01*
X138622619Y-109589819D02*
X139241666Y-109589819D01*
X119029321Y-71587429D02*
X118579377Y-71902390D01*
X119029321Y-72127362D02*
X118084439Y-72127362D01*
X118084439Y-72127362D02*
X118084439Y-71767407D01*
X118084439Y-71767407D02*
X118129433Y-71677418D01*
X118129433Y-71677418D02*
X118174428Y-71632423D01*
X118174428Y-71632423D02*
X118264416Y-71587429D01*
X118264416Y-71587429D02*
X118399400Y-71587429D01*
X118399400Y-71587429D02*
X118489388Y-71632423D01*
X118489388Y-71632423D02*
X118534383Y-71677418D01*
X118534383Y-71677418D02*
X118579377Y-71767407D01*
X118579377Y-71767407D02*
X118579377Y-72127362D01*
X118084439Y-71317463D02*
X119029321Y-71002502D01*
X119029321Y-71002502D02*
X118084439Y-70687541D01*
X118084439Y-70462569D02*
X118084439Y-69832648D01*
X118084439Y-69832648D02*
X119029321Y-70237597D01*
D11*
%TO.C,Q1*%
X202563228Y-25721515D02*
X207436773Y-25721514D01*
X202563228Y-25721515D02*
G75*
G02*
X207436773Y-25721514I2436772J1731949D01*
G01*
D12*
X202229056Y-24050000D02*
G75*
G02*
X202070944Y-24050000I-79056J0D01*
G01*
X202070944Y-24050000D02*
G75*
G02*
X202229056Y-24050000I79056J0D01*
G01*
D13*
%TO.C,SW4*%
X176885000Y-22100000D02*
X182115000Y-22100000D01*
X173500000Y-27500000D02*
G75*
G02*
X176885000Y-22100000I6000695J-600D01*
G01*
X182115000Y-22100000D02*
G75*
G02*
X185499999Y-27500000I-2618222J-5402183D01*
G01*
X185500000Y-27500000D02*
G75*
G02*
X173500000Y-27500000I-6000000J0D01*
G01*
%TO.C,RV3*%
X200250000Y-46112500D02*
X209750000Y-46112500D01*
X200250000Y-49842500D02*
X200250000Y-46112500D01*
X200250000Y-57462500D02*
X200250000Y-52082500D01*
X201426000Y-57462500D02*
X200250000Y-57462500D01*
X203926000Y-57462500D02*
X203574000Y-57462500D01*
X206426000Y-57462500D02*
X206074000Y-57462500D01*
X208574000Y-57462500D02*
X209750000Y-57462500D01*
X209750000Y-46112500D02*
X209750000Y-49842500D01*
X209750000Y-52082500D02*
X209750000Y-57462500D01*
D11*
X202600000Y-59962500D02*
G75*
G02*
X202400000Y-59962500I-100000J0D01*
G01*
X202400000Y-59962500D02*
G75*
G02*
X202600000Y-59962500I100000J0D01*
G01*
D13*
%TO.C,SW5*%
X221885000Y-46100000D02*
X227115000Y-46100000D01*
X218500000Y-51500000D02*
G75*
G02*
X221885000Y-46100000I6000695J-600D01*
G01*
X227115000Y-46100000D02*
G75*
G02*
X230499999Y-51500000I-2618222J-5402183D01*
G01*
X230500000Y-51500000D02*
G75*
G02*
X218500000Y-51500000I-6000000J0D01*
G01*
D14*
%TO.C,J3*%
X168395000Y-48275000D02*
X168395000Y-50935000D01*
X168395000Y-50935000D02*
X173595000Y-50935000D01*
X168455000Y-53645000D02*
X168455000Y-52375000D01*
X169345000Y-42275000D02*
X170105000Y-42275000D01*
X169345000Y-48275000D02*
X169345000Y-42275000D01*
X169345000Y-51265000D02*
X169345000Y-50935000D01*
X169405000Y-48275000D02*
X169405000Y-42275000D01*
X169525000Y-48275000D02*
X169525000Y-42275000D01*
X169645000Y-48275000D02*
X169645000Y-42275000D01*
X169725000Y-53645000D02*
X168455000Y-53645000D01*
X169765000Y-48275000D02*
X169765000Y-42275000D01*
X169885000Y-48275000D02*
X169885000Y-42275000D01*
X170005000Y-48275000D02*
X170005000Y-42275000D01*
X170105000Y-42275000D02*
X170105000Y-48275000D01*
X170105000Y-51265000D02*
X170105000Y-50935000D01*
X170995000Y-50935000D02*
X170995000Y-48275000D01*
X171885000Y-42275000D02*
X172645000Y-42275000D01*
X171885000Y-48275000D02*
X171885000Y-42275000D01*
X171885000Y-51332071D02*
X171885000Y-50935000D01*
X172645000Y-42275000D02*
X172645000Y-48275000D01*
X172645000Y-51332071D02*
X172645000Y-50935000D01*
X173595000Y-48275000D02*
X168395000Y-48275000D01*
X173595000Y-50935000D02*
X173595000Y-48275000D01*
D13*
%TO.C,SW8*%
X198650000Y-75429000D02*
X211350000Y-75429000D01*
X211350000Y-68571000D02*
X198650000Y-68571000D01*
D15*
X198088000Y-71999000D02*
G75*
G02*
X197688000Y-71999000I-200000J0D01*
G01*
X197688000Y-71999000D02*
G75*
G02*
X198088000Y-71999000I200000J0D01*
G01*
D13*
%TO.C,SW7*%
X239071000Y-110650000D02*
X239071000Y-123350000D01*
X245929000Y-123350000D02*
X245929000Y-110650000D01*
D15*
X242699000Y-124112000D02*
G75*
G02*
X242299000Y-124112000I-200000J0D01*
G01*
X242299000Y-124112000D02*
G75*
G02*
X242699000Y-124112000I200000J0D01*
G01*
D13*
%TO.C,SW3*%
X119651000Y-86571000D02*
X106951000Y-86571000D01*
X106951000Y-93429000D02*
X119651000Y-93429000D01*
D15*
X120613000Y-90001000D02*
G75*
G02*
X120213000Y-90001000I-200000J0D01*
G01*
X120213000Y-90001000D02*
G75*
G02*
X120613000Y-90001000I200000J0D01*
G01*
D13*
%TO.C,SW2*%
X221571000Y-64650000D02*
X221571000Y-77350000D01*
X228429000Y-77350000D02*
X228429000Y-64650000D01*
D15*
X225199000Y-78112000D02*
G75*
G02*
X224799000Y-78112000I-200000J0D01*
G01*
X224799000Y-78112000D02*
G75*
G02*
X225199000Y-78112000I200000J0D01*
G01*
D14*
%TO.C,R1*%
X195930000Y-38080000D02*
X206070000Y-38080000D01*
X195930000Y-38560000D02*
X195930000Y-38080000D01*
X195930000Y-41440000D02*
X195930000Y-41920000D01*
X195930000Y-41920000D02*
X206070000Y-41920000D01*
X206070000Y-38080000D02*
X206070000Y-38560000D01*
X206070000Y-41920000D02*
X206070000Y-41440000D01*
D13*
%TO.C,SW6*%
X239885000Y-92100000D02*
X245115000Y-92100000D01*
X236500000Y-97500000D02*
G75*
G02*
X239885000Y-92100000I6000695J-600D01*
G01*
X245115000Y-92100000D02*
G75*
G02*
X248499999Y-97500000I-2618222J-5402183D01*
G01*
X248500000Y-97500000D02*
G75*
G02*
X236500000Y-97500000I-6000000J0D01*
G01*
D11*
%TO.C,RV8*%
X170400000Y-72000000D02*
G75*
G02*
X170200000Y-72000000I-100000J0D01*
G01*
X170200000Y-72000000D02*
G75*
G02*
X170400000Y-72000000I100000J0D01*
G01*
D13*
X177550000Y-64120000D02*
X177550000Y-69500000D01*
X177550000Y-58150000D02*
X177550000Y-61880000D01*
X176374000Y-69500000D02*
X177550000Y-69500000D01*
X174226000Y-69500000D02*
X173874000Y-69500000D01*
X171726000Y-69500000D02*
X171374000Y-69500000D01*
X169226000Y-69500000D02*
X168050000Y-69500000D01*
X168050000Y-69500000D02*
X168050000Y-64120000D01*
X168050000Y-61880000D02*
X168050000Y-58150000D01*
X168050000Y-58150000D02*
X177550000Y-58150000D01*
D14*
%TO.C,J1*%
X220500000Y-25880000D02*
X220500000Y-36380000D01*
X223770000Y-22730000D02*
X223770000Y-23530000D01*
X223770000Y-22730000D02*
X224630000Y-22730000D01*
X224200000Y-36380000D02*
X220500000Y-36380000D01*
X224280000Y-25880000D02*
X220500000Y-25880000D01*
X229500000Y-25880000D02*
X225720000Y-25880000D01*
X229500000Y-25880000D02*
X229500000Y-36380000D01*
X229500000Y-36380000D02*
X225800000Y-36380000D01*
X226800000Y-30380000D02*
G75*
G02*
X223200000Y-30380000I-1800000J0D01*
G01*
X223200000Y-30380000D02*
G75*
G02*
X226800000Y-30380000I1800000J0D01*
G01*
%TO.C,R2*%
X210720000Y-36420000D02*
X210720000Y-35940000D01*
X210720000Y-32580000D02*
X210720000Y-33060000D01*
X200580000Y-36420000D02*
X210720000Y-36420000D01*
X200580000Y-35940000D02*
X200580000Y-36420000D01*
X200580000Y-33060000D02*
X200580000Y-32580000D01*
X200580000Y-32580000D02*
X210720000Y-32580000D01*
D13*
%TO.C,RV2*%
X179250000Y-84650000D02*
X188750000Y-84650000D01*
X179250000Y-88380000D02*
X179250000Y-84650000D01*
X179250000Y-96000000D02*
X179250000Y-90620000D01*
X180426000Y-96000000D02*
X179250000Y-96000000D01*
X182926000Y-96000000D02*
X182574000Y-96000000D01*
X185426000Y-96000000D02*
X185074000Y-96000000D01*
X187574000Y-96000000D02*
X188750000Y-96000000D01*
X188750000Y-84650000D02*
X188750000Y-88380000D01*
X188750000Y-90620000D02*
X188750000Y-96000000D01*
D11*
X181600000Y-98500000D02*
G75*
G02*
X181400000Y-98500000I-100000J0D01*
G01*
X181400000Y-98500000D02*
G75*
G02*
X181600000Y-98500000I100000J0D01*
G01*
D14*
%TO.C,LED1*%
X84455000Y-31830000D02*
X87545000Y-31830000D01*
X84455170Y-31830000D02*
G75*
G02*
X86000462Y-26280000I1544830J2560000D01*
G01*
X85999538Y-26280000D02*
G75*
G02*
X87544830Y-31830000I462J-2990000D01*
G01*
X88500000Y-29270000D02*
G75*
G02*
X83500000Y-29270000I-2500000J0D01*
G01*
X83500000Y-29270000D02*
G75*
G02*
X88500000Y-29270000I2500000J0D01*
G01*
D13*
%TO.C,RV6*%
X96250000Y-60650000D02*
X105750000Y-60650000D01*
X96250000Y-64380000D02*
X96250000Y-60650000D01*
X96250000Y-72000000D02*
X96250000Y-66620000D01*
X97426000Y-72000000D02*
X96250000Y-72000000D01*
X99926000Y-72000000D02*
X99574000Y-72000000D01*
X102426000Y-72000000D02*
X102074000Y-72000000D01*
X104574000Y-72000000D02*
X105750000Y-72000000D01*
X105750000Y-60650000D02*
X105750000Y-64380000D01*
X105750000Y-66620000D02*
X105750000Y-72000000D01*
D11*
X98600000Y-74500000D02*
G75*
G02*
X98400000Y-74500000I-100000J0D01*
G01*
X98400000Y-74500000D02*
G75*
G02*
X98600000Y-74500000I100000J0D01*
G01*
D13*
%TO.C,SW1*%
X197571000Y-110650000D02*
X197571000Y-123350000D01*
X204429000Y-123350000D02*
X204429000Y-110650000D01*
D15*
X201199000Y-124112000D02*
G75*
G02*
X200799000Y-124112000I-200000J0D01*
G01*
X200799000Y-124112000D02*
G75*
G02*
X201199000Y-124112000I200000J0D01*
G01*
D13*
%TO.C,RV4*%
X212450000Y-111150000D02*
X221950000Y-111150000D01*
X212450000Y-114880000D02*
X212450000Y-111150000D01*
X212450000Y-122500000D02*
X212450000Y-117120000D01*
X213626000Y-122500000D02*
X212450000Y-122500000D01*
X216126000Y-122500000D02*
X215774000Y-122500000D01*
X218626000Y-122500000D02*
X218274000Y-122500000D01*
X220774000Y-122500000D02*
X221950000Y-122500000D01*
X221950000Y-111150000D02*
X221950000Y-114880000D01*
X221950000Y-117120000D02*
X221950000Y-122500000D01*
D11*
X214800000Y-125000000D02*
G75*
G02*
X214600000Y-125000000I-100000J0D01*
G01*
X214600000Y-125000000D02*
G75*
G02*
X214800000Y-125000000I100000J0D01*
G01*
D13*
%TO.C,RV1*%
X158500000Y-122250000D02*
X153995000Y-122250000D01*
X158500000Y-120820000D02*
X158500000Y-122250000D01*
X158500000Y-113250000D02*
X158500000Y-114780000D01*
X155195000Y-113250000D02*
X158500000Y-113250000D01*
X152005000Y-113250000D02*
X89995000Y-113250000D01*
X150805000Y-122250000D02*
X91195000Y-122250000D01*
X88005000Y-122250000D02*
X83500000Y-122250000D01*
X83500000Y-122250000D02*
X83500000Y-120720000D01*
X83500000Y-113250000D02*
X86805000Y-113250000D01*
X83500000Y-113250000D02*
X83500000Y-118280000D01*
D11*
X159750000Y-119500000D02*
G75*
G02*
X159550000Y-119500000I-100000J0D01*
G01*
X159550000Y-119500000D02*
G75*
G02*
X159750000Y-119500000I100000J0D01*
G01*
D13*
%TO.C,RV5*%
X153250000Y-84650000D02*
X162750000Y-84650000D01*
X153250000Y-88380000D02*
X153250000Y-84650000D01*
X153250000Y-96000000D02*
X153250000Y-90620000D01*
X154426000Y-96000000D02*
X153250000Y-96000000D01*
X156926000Y-96000000D02*
X156574000Y-96000000D01*
X159426000Y-96000000D02*
X159074000Y-96000000D01*
X161574000Y-96000000D02*
X162750000Y-96000000D01*
X162750000Y-84650000D02*
X162750000Y-88380000D01*
X162750000Y-90620000D02*
X162750000Y-96000000D01*
D11*
X155600000Y-98500000D02*
G75*
G02*
X155400000Y-98500000I-100000J0D01*
G01*
X155400000Y-98500000D02*
G75*
G02*
X155600000Y-98500000I100000J0D01*
G01*
D14*
%TO.C,D1*%
X211940000Y-29500000D02*
X210720000Y-29500000D01*
X210720000Y-30970000D02*
X210720000Y-28030000D01*
X210720000Y-28030000D02*
X205280000Y-28030000D01*
X206300000Y-28030000D02*
X206300000Y-30970000D01*
X206180000Y-28030000D02*
X206180000Y-30970000D01*
X206060000Y-28030000D02*
X206060000Y-30970000D01*
X205280000Y-30970000D02*
X210720000Y-30970000D01*
X205280000Y-28030000D02*
X205280000Y-30970000D01*
X204060000Y-29500000D02*
X205280000Y-29500000D01*
D13*
%TO.C,RV9*%
X165250000Y-111150000D02*
X174750000Y-111150000D01*
X165250000Y-114880000D02*
X165250000Y-111150000D01*
X165250000Y-122500000D02*
X165250000Y-117120000D01*
X166426000Y-122500000D02*
X165250000Y-122500000D01*
X168926000Y-122500000D02*
X168574000Y-122500000D01*
X171426000Y-122500000D02*
X171074000Y-122500000D01*
X173574000Y-122500000D02*
X174750000Y-122500000D01*
X174750000Y-111150000D02*
X174750000Y-114880000D01*
X174750000Y-117120000D02*
X174750000Y-122500000D01*
D11*
X167600000Y-125000000D02*
G75*
G02*
X167400000Y-125000000I-100000J0D01*
G01*
X167400000Y-125000000D02*
G75*
G02*
X167600000Y-125000000I100000J0D01*
G01*
D16*
%TO.C,J2*%
X142600000Y-102500000D02*
G75*
G02*
X142200000Y-102500000I-200000J0D01*
G01*
X142200000Y-102500000D02*
G75*
G02*
X142600000Y-102500000I200000J0D01*
G01*
D13*
X56500000Y-54500000D02*
G75*
G02*
X59500000Y-51500000I3000000J0D01*
G01*
X59500000Y-107500000D02*
G75*
G02*
X56500000Y-104500000I0J3000000D01*
G01*
X138500000Y-51500000D02*
G75*
G02*
X141500000Y-54500000I-1J-3000001D01*
G01*
X141500000Y-104500000D02*
G75*
G02*
X138500000Y-107500000I-3000001J1D01*
G01*
X56500000Y-54500000D02*
X56500000Y-104500000D01*
X59500000Y-107500000D02*
X138500000Y-107500000D01*
X138500000Y-51500000D02*
X59500000Y-51500000D01*
X141500000Y-104500000D02*
X141500000Y-54500000D01*
%TO.C,RV7*%
X121250000Y-60650000D02*
X130750000Y-60650000D01*
X121250000Y-64380000D02*
X121250000Y-60650000D01*
X121250000Y-72000000D02*
X121250000Y-66620000D01*
X122426000Y-72000000D02*
X121250000Y-72000000D01*
X124926000Y-72000000D02*
X124574000Y-72000000D01*
X127426000Y-72000000D02*
X127074000Y-72000000D01*
X129574000Y-72000000D02*
X130750000Y-72000000D01*
X130750000Y-60650000D02*
X130750000Y-64380000D01*
X130750000Y-66620000D02*
X130750000Y-72000000D01*
D11*
X123600000Y-74500000D02*
G75*
G02*
X123400000Y-74500000I-100000J0D01*
G01*
X123400000Y-74500000D02*
G75*
G02*
X123600000Y-74500000I100000J0D01*
G01*
%TD*%
M02*
